# xmcd
#
# Track frame offsets:
#	150
#	12949
#	34547
#	53897
#	73531
#	88050
#	99080
#	120609
#	136562
#	154453
#	172540
#	190433
#	211161
#	228924
#	246029
#	263812
#	287874
#	304969
#
# Disc length: 4284 seconds
#
# Revision: 0
# Processed by: cddbd v1.5.2PL0 Copyright (c) Steve Scherf et al.
# Submitted via: audiograbber 1.82.01
#
DISCID=ea10ba12
DTITLE=Kenny Loggins - The Essential Kenny Loggins
DYEAR=2002
DGENRE=Rock
TTITLE0=Your Mama Don't Dance - (With Loggins and Messina)
TTITLE1=Vahevala - (With Loggins and Messina)
TTITLE2=Danny's Song - (With Loggins and Messina)
TTITLE3=House At Pooh Corner - (With Loggins and Messina)
TTITLE4=A Love Song (With Loggins and Messina)
TTITLE5=Watching The River Run - (With Loggins and Messina)
TTITLE6=Angry Eyes - (Single Version, With Loggins and Messina)
TTITLE7=Celebrate Me Home  
TTITLE8=I Believe In Love  
TTITLE9=Wait A Little While
TTITLE10=Whenever I Call You "Friend"
TTITLE11=This Is It  
TTITLE12=Keep The Fire
TTITLE13=Now And Then
TTITLE14=I'm Alright - (Theme From Caddyshack) 
TTITLE15=Heartlight
TTITLE16=I'm Free (Heaven Helps The Man)
TTITLE17=Don't Fight It (With Steve Perry)
EXTD=
EXTT0=
EXTT1=
EXTT2=
EXTT3=
EXTT4=
EXTT5=
EXTT6=
EXTT7=
EXTT8=
EXTT9=
EXTT10=
EXTT11=
EXTT12=
EXTT13=
EXTT14=
EXTT15=
EXTT16=
EXTT17=
PLAYORDER=
